<svg width="46" height="8" viewBox="0 0 46 8" fill="none" xmlns="http://www.w3.org/2000/svg">
<path d="M4.20259 0.147369C4.15806 0.05713 4.06615 0 3.96552 0C3.86489 0 3.77299 0.05713 3.72846 0.147369L2.6462 2.34029L0.226383 2.69169C0.126794 2.70615 0.0440525 2.7759 0.0129505 2.87161C-0.0181514 2.96732 0.00778093 3.07238 0.0798431 3.14262L1.83089 4.84948L1.41741 7.25986C1.4004 7.35904 1.44117 7.45928 1.52258 7.51843C1.60399 7.57758 1.71193 7.58538 1.801 7.53855L3.96552 6.40053L6.13005 7.53855C6.21912 7.58538 6.32705 7.57758 6.40847 7.51843C6.48988 7.45928 6.53065 7.35904 6.51364 7.25986L6.10016 4.84948L7.8512 3.14262C7.92327 3.07238 7.9492 2.96732 7.9181 2.87161C7.88699 2.7759 7.80425 2.70615 7.70466 2.69169L5.28485 2.34029L4.20259 0.147369Z" fill="black"/>
<path d="M13.7198 0.147369C13.6753 0.05713 13.5834 0 13.4827 0C13.3821 0 13.2902 0.05713 13.2457 0.147369L12.1634 2.34029L9.7436 2.69169C9.64401 2.70615 9.56126 2.7759 9.53016 2.87161C9.49906 2.96732 9.52499 3.07238 9.59706 3.14262L11.3481 4.84948L10.9346 7.25986C10.9176 7.35904 10.9584 7.45928 11.0398 7.51843C11.1212 7.57758 11.2291 7.58538 11.3182 7.53855L13.4827 6.40053L15.6473 7.53855C15.7363 7.58538 15.8443 7.57758 15.9257 7.51843C16.0071 7.45928 16.0479 7.35904 16.0308 7.25986L15.6174 4.84948L17.3684 3.14262C17.4405 3.07238 17.4664 2.96732 17.4353 2.87161C17.4042 2.7759 17.3215 2.70615 17.2219 2.69169L14.8021 2.34029L13.7198 0.147369Z" fill="black"/>
<path d="M23.237 0.147369C23.1925 0.05713 23.1006 0 22.9999 0C22.8993 0 22.8074 0.05713 22.7629 0.147369L21.6806 2.34029L19.2608 2.69169C19.1612 2.70615 19.0785 2.7759 19.0474 2.87161C19.0163 2.96732 19.0422 3.07238 19.1143 3.14262L20.8653 4.84948L20.4518 7.25986C20.4348 7.35904 20.4756 7.45928 20.557 7.51843C20.6384 7.57758 20.7464 7.58538 20.8354 7.53855L22.9999 6.40053L25.1645 7.53855C25.2535 7.58538 25.3615 7.57758 25.4429 7.51843C25.5243 7.45928 25.5651 7.35904 25.5481 7.25986L25.1346 4.84948L26.8856 3.14262C26.9577 3.07238 26.9836 2.96732 26.9525 2.87161C26.9214 2.7759 26.8387 2.70615 26.7391 2.69169L24.3193 2.34029L23.237 0.147369Z" fill="black"/>
<path d="M32.7542 0.147369C32.7097 0.05713 32.6178 0 32.5172 0C32.4165 0 32.3246 0.05713 32.2801 0.147369L31.1978 2.34029L28.778 2.69169C28.6784 2.70615 28.5957 2.7759 28.5646 2.87161C28.5335 2.96732 28.5594 3.07238 28.6315 3.14262L30.3825 4.84948L29.969 7.25986C29.952 7.35904 29.9928 7.45928 30.0742 7.51843C30.1556 7.57758 30.2636 7.58538 30.3526 7.53855L32.5172 6.40053L34.6817 7.53855C34.7708 7.58538 34.8787 7.57758 34.9601 7.51843C35.0415 7.45928 35.0823 7.35904 35.0653 7.25986L34.6518 4.84948L36.4028 3.14262C36.4749 3.07238 36.5008 2.96732 36.4697 2.87161C36.4386 2.7759 36.3559 2.70615 36.2563 2.69169L33.8365 2.34029L32.7542 0.147369Z" fill="black"/>
<path d="M42.2716 0.147369C42.227 0.05713 42.1351 0 42.0345 0C41.9339 0 41.842 0.05713 41.7974 0.147369L40.7152 2.34029L38.2954 2.69169C38.1958 2.70615 38.113 2.7759 38.0819 2.87161C38.0508 2.96732 38.0768 3.07238 38.1488 3.14262L39.8999 4.84948L39.4864 7.25986C39.4694 7.35904 39.5101 7.45928 39.5916 7.51843C39.673 7.57758 39.7809 7.58538 39.87 7.53855L42.0345 6.40053L44.199 7.53855C44.2881 7.58538 44.396 7.57758 44.4774 7.51843C44.5588 7.45928 44.5996 7.35904 44.5826 7.25986L44.1691 4.84948L45.9202 3.14262C45.9922 3.07238 46.0182 2.96732 45.9871 2.87161C45.956 2.7759 45.8732 2.70615 45.7736 2.69169L43.3538 2.34029L42.2716 0.147369Z" fill="#D1D1D1"/>
</svg>
